<?xml version="1.0" encoding="utf-8"?>
<!-- Generator: Adobe Illustrator 22.0.0, SVG Export Plug-In . SVG Version: 6.00 Build 0)  -->
<svg version="1.1" id="Layer_1" xmlns="http://www.w3.org/2000/svg" xmlns:xlink="http://www.w3.org/1999/xlink" x="0px" y="0px"
	 viewBox="0 0 400 300" style="enable-background:new 0 0 400 300;" xml:space="preserve">
<g id="layer1" fill="#ff9cce">
	<path d="M110.9,253.4c-6.4-1.9-16.4-5.9-22.3-8.9c-15.1-8.1-41.4-34.8-49.7-51l-7-13.2l8.5-4.5c8.1-4,29.9-10.6,35.7-10.6
		c1.3,0,5.9,6.6,10.2,14.7c18.5,35,48.6,57.6,89.2,67.1l6.4,1.5l-8.5,3.2C160.8,256.4,125.1,257.3,110.9,253.4z"/>
	<path d="M232,253.2c-14.2-3.8-15.1-4.5-7.4-6.2c38.7-8.3,70.7-32.9,90-69.4c3.6-6.8,7.9-12.3,9.1-12.3c4.9,0,24,5.7,34,10.2
		l10.4,4.7l-7.2,13.2c-9.1,17.2-35,43.3-50.8,51.2C285.9,256.6,256.6,259.8,232,253.2z"/>
	<path d="M165.9,236.2c-36.3-9.8-69.4-43.1-82.8-83.3c-5.7-17.2-9.8-46.7-6.8-49.7c1.5-1.5,7-1.3,17.2,0.4
		c53.1,8.9,95.8,59.5,101.3,119.6l1.5,16.4l-9.3-0.2C181.8,239.4,172.3,237.9,165.9,236.2z"/>
	<path d="M204.1,229.9c0-14.2,5.9-38.2,13.8-55c13.2-28.7,32.5-49.1,58.8-61.6c14.7-7,39.5-13.2,45-11c7,2.8-1.9,46.5-14.9,72.2
		c-9.1,18.1-34.2,44-51,52.9c-12.5,6.8-32.3,12.3-43.8,12.3h-8.1V229.9z"/>
	<path d="M195.6,188.2c-3.8-13.6-14.2-33.1-24-45.9l-8.5-11.3l3.6-18.5c3.6-19.1,17.4-50.5,27.6-62.9l5.3-6.4l4.2,5.3
		c13.2,15.3,25.3,43.3,29.7,68.2l2.3,14l-11.3,15.9C214.1,161.7,202,186.8,202,194C202,200.4,198.4,197,195.6,188.2z"/>
	<path d="M145.3,116.7c-6.2-4.5-12.1-8.7-13.4-9.1c-1.5-0.4-1.9-4-0.8-9.3c2.1-14.2,3.4-15.1,14-8.7c14,8.1,14.9,10,13,23.6
		l-1.7,12.1L145.3,116.7z"/>
	<path d="M241.1,112L239,99.3l11.7-7.2c6.4-4,12.5-7.4,13.2-7.4c1.5,0,7,21.7,5.7,22.1c-0.4,0.2-6.4,4.2-13.6,9.1l-12.7,8.7
		L241.1,112z"/>
</g>
</svg>
